<svg width="800" height="600" xmlns="http://www.w3.org/2000/svg">
  <!-- Background -->
  <rect width="100%" height="100%" fill="#87CEEB" />

  <!-- Ground -->
  <rect x="0" y="500" width="800" height="100" fill="#2E8B57" />

  <!-- Clouds -->
  <g id="clouds">
    <!-- Cloud 1 -->
    <path style="fill:#D5EEF7;" d="M52.313,113.728c4.931,1.189,10.215,1.619,15.279,1.62c5.347,0.001,10.724,0.001,16.073,0.001
        c4.305,0,8.604-0.696,12.904-0.796c0.055,0.04,0.12,0.064,0.186,0.085c-0.466,4.039,2.833,7.525,7.463,8.613
        c6.236,1.466,14.684,0.208,19.534-4.311c1.528,7.256,6.94,14.535,13.195,18.321c8.379,5.073,17.543,7.842,27.261,8.857
        c9.951,1.04,20.216,0.009,29.754-2.964c4.422-1.378,8.761-3.323,12.73-5.712c1.673-1.007,3.243-2.296,4.815-3.454
        c1.349-0.992,2.854-2.081,4.048-3.317c0.389,0.477,0.813,0.905,1.282,1.253c3.753,2.789,7.841,4.475,12.518,4.92
        c4.663,0.445,8.807-0.831,12.955-2.84c3.845-1.863,6.387-5.002,7.846-8.958c1.046,2.176,3.608,4.02,5.372,5.391
        c3.303,2.568,7.051,4.292,11.033,5.492c8.005,2.412,16.564,2.945,24.822,1.684c7.775-1.188,15.331-4.311,21.627-9.057
        c3.082-2.323,5.947-5.06,8.176-8.22c1.561-2.213,3.313-4.794,4.206-7.505c12.769-0.064,25.464-0.359,38.077-2.56
        c7.215-1.259,27.718-5.699,21.487-17.16c-2.424-4.458-7.996-7.008-12.49-8.736c-6.346-2.441-13.063-3.393-19.744-4.404
        c-13.117-1.985-26.973-2.776-40.198-2.026c-1.081-6.271-5.524-12.256-9.038-17.391c-3.909-5.709-8.888-10.971-14.376-15.185
        c-11.674-8.964-25.548-13.663-39.828-16.502c-14.015-2.786-28.576-2.237-42.45,1.081c-7.03,1.681-13.786,4.576-20.084,8.083
        c-5.342,2.975-10.821,7.026-14.341,12.097c-0.221,0.317-0.525,0.842-0.828,1.297c-0.533-1.535-1.973-2.94-2.919-4.084
        c-1.759-2.127-4.271-4.248-6.743-5.481c-5.006-2.498-10.471-3.965-15.995-2.672c-5.418,1.269-10.731,3.875-14.479,8.097
        c-2.008,2.262-3.54,4.767-4.601,7.599c-0.79,2.11-0.754,4.268-0.496,6.44c-4.374-4.664-11.17-6.516-17.38-6.915
        c-7.063-0.454-14.318,1.863-19.493,6.727c-4.423,4.156-7.533,10.662-7.161,16.805c0.233,3.835,1.408,7.356,3.246,10.711
        c0.341,0.622,0.759,1.35,1.244,2.075c-10.192-0.771-20.949-1.123-30.942,1.173c-4.816,1.106-9.352,2.688-13.174,5.875
        c-2.499,2.084-5.674,6.551-3.501,9.898C41.912,111.871,47.853,112.652,52.313,113.728z" />
    <!-- Cloud 2 -->
    <g fill="#FFFFFF">
      <path style="fill:#D5EEF7;" d="M600,80c4.931,1.189,10.215,1.619,15.279,1.62c5.347,0.001,10.724,0.001,16.073,0.001
        c4.305,0,8.604-0.696,12.904-0.796c0.055,0.04,0.12,0.064,0.186,0.085c-0.466,4.039,2.833,7.525,7.463,8.613
        c6.236,1.466,14.684,0.208,19.534-4.311c1.528,7.256,6.94,14.535,13.195,18.321c8.379,5.073,17.543,7.842,27.261,8.857
        c9.951,1.04,20.216,0.009,29.754-2.964c4.422-1.378,8.761-3.323,12.73-5.712c1.673-1.007,3.243-2.296,4.815-3.454
        c1.349-0.992,2.854-2.081,4.048-3.317c0.389,0.477,0.813,0.905,1.282,1.253c3.753,2.789,7.841,4.475,12.518,4.92
        c4.663,0.445,8.807-0.831,12.955-2.84c3.845-1.863,6.387-5.002,7.846-8.958c1.046,2.176,3.608,4.02,5.372,5.391
        c3.303,2.568,7.051,4.292,11.033,5.492c8.005,2.412,16.564,2.945,24.822,1.684c7.775-1.188,15.331-4.311,21.627-9.057
        c3.082-2.323,5.947-5.06,8.176-8.22c1.561-2.213,3.313-4.794,4.206-7.505c12.769-0.064,25.464-0.359,38.077-2.56
        c7.215-1.259,27.718-5.699,21.487-17.16c-2.424-4.458-7.996-7.008-12.49-8.736c-6.346-2.441-13.063-3.393-19.744-4.404
        c-13.117-1.985-26.973-2.776-40.198-2.026c-1.081-6.271-5.524-12.256-9.038-17.391c-3.909-5.709-8.888-10.971-14.376-15.185
        c-11.674-8.964-25.548-13.663-39.828-16.502c-14.015-2.786-28.576-2.237-42.45,1.081c-7.03,1.681-13.786,4.576-20.084,8.083
        c-5.342,2.975-10.821,7.026-14.341,12.097c-0.221,0.317-0.525,0.842-0.828,1.297c-0.533-1.535-1.973-2.94-2.919-4.084
        c-1.759-2.127-4.271-4.248-6.743-5.481c-5.006-2.498-10.471-3.965-15.995-2.672c-5.418,1.269-10.731,3.875-14.479,8.097
        c-2.008,2.262-3.54,4.767-4.601,7.599c-0.79,2.11-0.754,4.268-0.496,6.44c-4.374-4.664-11.17-6.516-17.38-6.915
        c-7.063-0.454-14.318,1.863-19.493,6.727c-4.423,4.156-7.533,10.662-7.161,16.805c0.233,3.835,1.408,7.356,3.246,10.711
        c0.341,0.622,0.759,1.35,1.244,2.075c-10.192-0.771-20.949-1.123-30.942,1.173c-4.816,1.106-9.352,2.688-13.174,5.875
        c-2.499,2.084-5.674,6.551-3.501,9.898C589.912,76.871,595.853,77.652,600,80z" />
    </g>
    <!-- Clouds animation -->
    <animateMotion repeatCount="indefinite" dur="30s">
      <mpath href="#cloudPath1" />
    </animateMotion>
    <animateMotion repeatCount="indefinite" dur="25s">
      <mpath href="#cloudPath2" />
    </animateMotion>
  </g>

  <!-- Cloud paths -->
  <path id="cloudPath1" d="M0 0 Q800 60, 0 120 T800 240" fill="none" />
  <path id="cloudPath2" d="M0 0 Q800 80, 0 160 T800 280" fill="none" />

  <!-- Skyscrapers -->
  <g fill="#2f4f4f">
    <!-- Skyscraper 1 -->
    <rect x="50" y="300" width="80" height="200" />
    <g id="windows1" fill="#ffffff">
      <rect x="60" y="320" width="20" height="20" />
      <rect x="60" y="350" width="20" height="20" />
      <rect x="60" y="380" width="20" height="20" />
      <rect x="60" y="410" width="20" height="20" />
      <rect x="60" y="440" width="20" height="20" />
    </g>

    <!-- Skyscraper 2 -->
    <rect x="150" y="250" width="120" height="250" />
    <g id="windows2" fill="#ffffff">
      <rect x="160" y="270" width="30" height="20" />
      <rect x="200" y="270" width="30" height="20" />
      <rect x="240" y="270" width="30" height="20" />
      <rect x="160" y="310" width="30" height="20" />
      <rect x="200" y="310" width="30" height="20" />
      <rect x="240" y="310" width="30" height="20" />
      <rect x="160" y="350" width="30" height="20" />
      <rect x="200" y="350" width="30" height="20" />
      <rect x="240" y="350" width="30" height="20" />
    </g>

    <!-- Skyscraper 3 -->
    <rect x="300" y="200" width="100" height="300" />
    <g id="windows3" fill="#ffffff">
      <rect x="310" y="220" width="20" height="20" />
      <rect x="340" y="220" width="20" height="20" />
      <rect x="310" y="250" width="20" height="20" />
      <rect x="340" y="250" width="20" height="20" />
      <rect x="310" y="280" width="20" height="20" />
      <rect x="340" y="280" width="20" height="20" />
      <rect x="310" y="310" width="20" height="20" />
      <rect x="340" y="310" width="20" height="20" />
    </g>

    <!-- Skyscraper 4 -->
    <rect x="430" y="250" width="90" height="250" />
    <g id="windows4" fill="#ffffff">
      <rect x="440" y="270" width="20" height="20" />
      <rect x="470" y="270" width="20" height="20" />
      <rect x="440" y="300" width="20" height="20" />
      <rect x="470" y="300" width="20" height="20" />
      <rect x="440" y="330" width="20" height="20" />
      <rect x="470" y="330" width="20" height="20" />
      <rect x="440" y="360" width="20" height="20" />
      <rect x="470" y="360" width="20" height="20" />
    </g>

    <!-- Skyscraper 5 -->
    <rect x="550" y="280" width="100" height="220" />
    <g id="windows5" fill="#ffffff">
      <rect x="560" y="300" width="30" height="20" />
      <rect x="600" y="300" width="30" height="20" />
      <rect x="560" y="330" width="30" height="20" />
      <rect x="600" y="330" width="30" height="20" />
      <rect x="560" y="360" width="30" height="20" />
      <rect x="600" y="360" width="30" height="20" />
      <rect x="560" y="390" width="30" height="20" />
      <rect x="600" y="390" width="30" height="20" />
    </g>
  </g>

  <defs>
    <path id="birdPath1" d="M0,0 Q400,100 800,0 T1600,0" fill="none" />
    <path id="birdPath2" d="M0,0 Q400,150 800,50 T1600,50" fill="none" />
  </defs>

  <!-- Birds -->
  <g id="birds">
    <!-- Bird 1 -->
    <g>
      <path d="M10 10 Q15 5, 20 10 T30 10 Q35 5, 40 10 T50 10" fill="black" />
      <animateMotion repeatCount="indefinite" dur="10s">
        <mpath href="#birdPath1" />
      </animateMotion>
    </g>

    <!-- Bird 2 -->
    <g>
      <path d="M50 20 Q55 15, 60 20 T70 20 Q75 15, 80 20 T90 20" fill="black" />
      <animateMotion repeatCount="indefinite" dur="12s">
        <mpath href="#birdPath2" />
      </animateMotion>
    </g>
  </g>

  <!-- Sun -->
<g id="sun" transform="translate(780, 90)">
  <!-- Circle -->
  <circle cx="0" cy="0" r="40" fill="#FFD700" />
  <!-- Rays -->
  <g stroke="#FFD700" stroke-width="4">
    <line x1="0" y1="-40" x2="0" y2="-60" />
    <line x1="0" y1="40" x2="0" y2="60" />
    <line x1="-40" y1="0" x2="-60" y2="0" />
    <line x1="40" y1="0" x2="60" y2="0" />
    <line x1="-30" y1="-30" x2="-50" y2="-50" />
    <line x1="30" y1="-30" x2="50" y2="-50" />
    <line x1="-30" y1="30" x2="-50" y2="50" />
    <line x1="30" y1="30" x2="50" y2="50" />
  </g>
  <!-- Rotation Animation -->
  <animateTransform attributeName="transform" type="rotate" from="0 0 0" to="360 0 0" dur="10s" repeatCount="indefinite" />
</g>

</svg>
